<mxfile host="app.diagrams.net" modified="2023-08-14T09:09:31.459Z" agent="Mozilla/5.0 (Macintosh; Intel Mac OS X 10_15_7) AppleWebKit/537.36 (KHTML, like Gecko) Chrome/115.0.0.0 Safari/537.36" etag="RSrjFqPPxXvBc14fD9Ue" version="21.6.8" type="github">
  <diagram name="第 1 页" id="pnF7DnLvAnyAHwpiiANc">
    <mxGraphModel dx="2460" dy="2082" grid="1" gridSize="10" guides="1" tooltips="1" connect="1" arrows="1" fold="1" page="1" pageScale="1" pageWidth="827" pageHeight="1169" math="0" shadow="0">
      <root>
        <mxCell id="0" />
        <mxCell id="1" parent="0" />
        <mxCell id="1yWd1CWP5DWgr2ArtbLw-1" value="1&lt;span style=&quot;white-space: pre;&quot;&gt;&#x9;&lt;/span&gt;2" style="rounded=1;whiteSpace=wrap;html=1;" parent="1" vertex="1">
          <mxGeometry x="344" y="48" width="120" height="30" as="geometry" />
        </mxCell>
        <mxCell id="1yWd1CWP5DWgr2ArtbLw-2" value="&lt;font style=&quot;font-size: 36px;&quot;&gt;3阶B+树，依次插入1-7&lt;/font&gt;" style="text;html=1;align=center;verticalAlign=middle;resizable=0;points=[];autosize=1;strokeColor=none;fillColor=none;" parent="1" vertex="1">
          <mxGeometry x="200" y="-40" width="390" height="60" as="geometry" />
        </mxCell>
        <mxCell id="1yWd1CWP5DWgr2ArtbLw-3" value="&lt;font style=&quot;font-size: 24px;&quot;&gt;插入1、2&lt;/font&gt;" style="text;html=1;align=center;verticalAlign=middle;resizable=0;points=[];autosize=1;strokeColor=none;fillColor=none;" parent="1" vertex="1">
          <mxGeometry x="-105" y="75" width="120" height="40" as="geometry" />
        </mxCell>
        <mxCell id="1yWd1CWP5DWgr2ArtbLw-7" value="2&lt;span style=&quot;white-space: pre;&quot;&gt;&#x9;&lt;/span&gt;3" style="rounded=1;whiteSpace=wrap;html=1;" parent="1" vertex="1">
          <mxGeometry x="444" y="190" width="120" height="30" as="geometry" />
        </mxCell>
        <mxCell id="1yWd1CWP5DWgr2ArtbLw-8" value="&lt;font style=&quot;font-size: 24px;&quot;&gt;插入3&lt;/font&gt;" style="text;html=1;align=center;verticalAlign=middle;resizable=0;points=[];autosize=1;strokeColor=none;fillColor=none;" parent="1" vertex="1">
          <mxGeometry x="-95" y="180" width="80" height="40" as="geometry" />
        </mxCell>
        <mxCell id="1yWd1CWP5DWgr2ArtbLw-11" style="rounded=0;orthogonalLoop=1;jettySize=auto;html=1;exitX=0.25;exitY=1;exitDx=0;exitDy=0;entryX=0.5;entryY=0;entryDx=0;entryDy=0;" parent="1" source="1yWd1CWP5DWgr2ArtbLw-9" target="1yWd1CWP5DWgr2ArtbLw-10" edge="1">
          <mxGeometry relative="1" as="geometry" />
        </mxCell>
        <mxCell id="1yWd1CWP5DWgr2ArtbLw-12" style="rounded=0;orthogonalLoop=1;jettySize=auto;html=1;exitX=0.75;exitY=1;exitDx=0;exitDy=0;" parent="1" source="1yWd1CWP5DWgr2ArtbLw-9" target="1yWd1CWP5DWgr2ArtbLw-7" edge="1">
          <mxGeometry relative="1" as="geometry" />
        </mxCell>
        <mxCell id="1yWd1CWP5DWgr2ArtbLw-9" value="2" style="rounded=1;whiteSpace=wrap;html=1;" parent="1" vertex="1">
          <mxGeometry x="344" y="130" width="120" height="30" as="geometry" />
        </mxCell>
        <mxCell id="1yWd1CWP5DWgr2ArtbLw-10" value="1" style="rounded=1;whiteSpace=wrap;html=1;" parent="1" vertex="1">
          <mxGeometry x="254" y="190" width="120" height="30" as="geometry" />
        </mxCell>
        <mxCell id="1yWd1CWP5DWgr2ArtbLw-14" value="3&lt;span style=&quot;white-space: pre;&quot;&gt;&#x9;&lt;/span&gt;4" style="rounded=1;whiteSpace=wrap;html=1;" parent="1" vertex="1">
          <mxGeometry x="513" y="350" width="120" height="30" as="geometry" />
        </mxCell>
        <mxCell id="1yWd1CWP5DWgr2ArtbLw-15" value="&lt;font style=&quot;font-size: 24px;&quot;&gt;插入4&lt;/font&gt;" style="text;html=1;align=center;verticalAlign=middle;resizable=0;points=[];autosize=1;strokeColor=none;fillColor=none;" parent="1" vertex="1">
          <mxGeometry x="-95" y="320" width="80" height="40" as="geometry" />
        </mxCell>
        <mxCell id="1yWd1CWP5DWgr2ArtbLw-16" style="rounded=0;orthogonalLoop=1;jettySize=auto;html=1;exitX=0.25;exitY=1;exitDx=0;exitDy=0;entryX=0.5;entryY=0;entryDx=0;entryDy=0;" parent="1" source="1yWd1CWP5DWgr2ArtbLw-18" target="1yWd1CWP5DWgr2ArtbLw-19" edge="1">
          <mxGeometry relative="1" as="geometry" />
        </mxCell>
        <mxCell id="1yWd1CWP5DWgr2ArtbLw-17" style="rounded=0;orthogonalLoop=1;jettySize=auto;html=1;exitX=0.75;exitY=1;exitDx=0;exitDy=0;" parent="1" source="1yWd1CWP5DWgr2ArtbLw-18" target="1yWd1CWP5DWgr2ArtbLw-14" edge="1">
          <mxGeometry relative="1" as="geometry" />
        </mxCell>
        <mxCell id="1yWd1CWP5DWgr2ArtbLw-22" style="edgeStyle=orthogonalEdgeStyle;rounded=0;orthogonalLoop=1;jettySize=auto;html=1;exitX=0.5;exitY=1;exitDx=0;exitDy=0;entryX=0.5;entryY=0;entryDx=0;entryDy=0;" parent="1" source="1yWd1CWP5DWgr2ArtbLw-18" target="1yWd1CWP5DWgr2ArtbLw-20" edge="1">
          <mxGeometry relative="1" as="geometry" />
        </mxCell>
        <mxCell id="1yWd1CWP5DWgr2ArtbLw-18" value="2&lt;span style=&quot;white-space: pre;&quot;&gt;&#x9;&lt;/span&gt;3" style="rounded=1;whiteSpace=wrap;html=1;" parent="1" vertex="1">
          <mxGeometry x="349" y="280" width="120" height="30" as="geometry" />
        </mxCell>
        <mxCell id="1yWd1CWP5DWgr2ArtbLw-19" value="1" style="rounded=1;whiteSpace=wrap;html=1;" parent="1" vertex="1">
          <mxGeometry x="194" y="350" width="120" height="30" as="geometry" />
        </mxCell>
        <mxCell id="1yWd1CWP5DWgr2ArtbLw-20" value="2" style="rounded=1;whiteSpace=wrap;html=1;" parent="1" vertex="1">
          <mxGeometry x="349" y="350" width="120" height="30" as="geometry" />
        </mxCell>
        <mxCell id="1yWd1CWP5DWgr2ArtbLw-23" value="3" style="rounded=1;whiteSpace=wrap;html=1;" parent="1" vertex="1">
          <mxGeometry x="439" y="600" width="120" height="30" as="geometry" />
        </mxCell>
        <mxCell id="1yWd1CWP5DWgr2ArtbLw-24" value="&lt;font style=&quot;font-size: 24px;&quot;&gt;插入5&lt;/font&gt;" style="text;html=1;align=center;verticalAlign=middle;resizable=0;points=[];autosize=1;strokeColor=none;fillColor=none;" parent="1" vertex="1">
          <mxGeometry x="-95" y="560" width="80" height="40" as="geometry" />
        </mxCell>
        <mxCell id="1yWd1CWP5DWgr2ArtbLw-45" style="rounded=0;orthogonalLoop=1;jettySize=auto;html=1;exitX=0.25;exitY=1;exitDx=0;exitDy=0;entryX=0.5;entryY=0;entryDx=0;entryDy=0;" parent="1" source="1yWd1CWP5DWgr2ArtbLw-28" target="1yWd1CWP5DWgr2ArtbLw-23" edge="1">
          <mxGeometry relative="1" as="geometry" />
        </mxCell>
        <mxCell id="1yWd1CWP5DWgr2ArtbLw-46" style="rounded=0;orthogonalLoop=1;jettySize=auto;html=1;exitX=0.75;exitY=1;exitDx=0;exitDy=0;entryX=0.5;entryY=0;entryDx=0;entryDy=0;" parent="1" source="1yWd1CWP5DWgr2ArtbLw-28" target="1yWd1CWP5DWgr2ArtbLw-37" edge="1">
          <mxGeometry relative="1" as="geometry" />
        </mxCell>
        <mxCell id="1yWd1CWP5DWgr2ArtbLw-28" value="4" style="rounded=1;whiteSpace=wrap;html=1;" parent="1" vertex="1">
          <mxGeometry x="499" y="520" width="120" height="30" as="geometry" />
        </mxCell>
        <mxCell id="1yWd1CWP5DWgr2ArtbLw-29" value="1" style="rounded=1;whiteSpace=wrap;html=1;" parent="1" vertex="1">
          <mxGeometry x="119" y="600" width="120" height="30" as="geometry" />
        </mxCell>
        <mxCell id="1yWd1CWP5DWgr2ArtbLw-30" value="2" style="rounded=1;whiteSpace=wrap;html=1;" parent="1" vertex="1">
          <mxGeometry x="279" y="600" width="120" height="30" as="geometry" />
        </mxCell>
        <mxCell id="1yWd1CWP5DWgr2ArtbLw-40" style="rounded=0;orthogonalLoop=1;jettySize=auto;html=1;exitX=0.25;exitY=1;exitDx=0;exitDy=0;entryX=0.5;entryY=0;entryDx=0;entryDy=0;" parent="1" source="1yWd1CWP5DWgr2ArtbLw-31" target="1yWd1CWP5DWgr2ArtbLw-32" edge="1">
          <mxGeometry relative="1" as="geometry" />
        </mxCell>
        <mxCell id="1yWd1CWP5DWgr2ArtbLw-41" style="rounded=0;orthogonalLoop=1;jettySize=auto;html=1;exitX=0.75;exitY=1;exitDx=0;exitDy=0;entryX=0.5;entryY=0;entryDx=0;entryDy=0;" parent="1" source="1yWd1CWP5DWgr2ArtbLw-31" target="1yWd1CWP5DWgr2ArtbLw-28" edge="1">
          <mxGeometry relative="1" as="geometry" />
        </mxCell>
        <mxCell id="1yWd1CWP5DWgr2ArtbLw-31" value="3" style="rounded=1;whiteSpace=wrap;html=1;" parent="1" vertex="1">
          <mxGeometry x="349" y="460" width="120" height="30" as="geometry" />
        </mxCell>
        <mxCell id="1yWd1CWP5DWgr2ArtbLw-43" style="rounded=0;orthogonalLoop=1;jettySize=auto;html=1;exitX=0.25;exitY=1;exitDx=0;exitDy=0;" parent="1" source="1yWd1CWP5DWgr2ArtbLw-32" target="1yWd1CWP5DWgr2ArtbLw-29" edge="1">
          <mxGeometry relative="1" as="geometry" />
        </mxCell>
        <mxCell id="1yWd1CWP5DWgr2ArtbLw-44" style="rounded=0;orthogonalLoop=1;jettySize=auto;html=1;exitX=0.75;exitY=1;exitDx=0;exitDy=0;entryX=0.5;entryY=0;entryDx=0;entryDy=0;" parent="1" source="1yWd1CWP5DWgr2ArtbLw-32" target="1yWd1CWP5DWgr2ArtbLw-30" edge="1">
          <mxGeometry relative="1" as="geometry" />
        </mxCell>
        <mxCell id="1yWd1CWP5DWgr2ArtbLw-32" value="2" style="rounded=1;whiteSpace=wrap;html=1;" parent="1" vertex="1">
          <mxGeometry x="209" y="520" width="120" height="30" as="geometry" />
        </mxCell>
        <mxCell id="1yWd1CWP5DWgr2ArtbLw-37" value="4&lt;span style=&quot;white-space: pre;&quot;&gt;&#x9;&lt;/span&gt;5" style="rounded=1;whiteSpace=wrap;html=1;" parent="1" vertex="1">
          <mxGeometry x="589" y="600" width="120" height="30" as="geometry" />
        </mxCell>
        <mxCell id="1yWd1CWP5DWgr2ArtbLw-47" value="3" style="rounded=1;whiteSpace=wrap;html=1;" parent="1" vertex="1">
          <mxGeometry x="419.5" y="830" width="120" height="30" as="geometry" />
        </mxCell>
        <mxCell id="1yWd1CWP5DWgr2ArtbLw-48" value="&lt;font style=&quot;font-size: 24px;&quot;&gt;插入6&lt;/font&gt;" style="text;html=1;align=center;verticalAlign=middle;resizable=0;points=[];autosize=1;strokeColor=none;fillColor=none;" parent="1" vertex="1">
          <mxGeometry x="-95" y="780" width="80" height="40" as="geometry" />
        </mxCell>
        <mxCell id="1yWd1CWP5DWgr2ArtbLw-62" style="rounded=0;orthogonalLoop=1;jettySize=auto;html=1;exitX=0.25;exitY=1;exitDx=0;exitDy=0;entryX=0.5;entryY=0;entryDx=0;entryDy=0;" parent="1" source="1yWd1CWP5DWgr2ArtbLw-51" target="1yWd1CWP5DWgr2ArtbLw-47" edge="1">
          <mxGeometry relative="1" as="geometry" />
        </mxCell>
        <mxCell id="1yWd1CWP5DWgr2ArtbLw-64" style="edgeStyle=orthogonalEdgeStyle;rounded=0;orthogonalLoop=1;jettySize=auto;html=1;exitX=0.5;exitY=1;exitDx=0;exitDy=0;entryX=0.5;entryY=0;entryDx=0;entryDy=0;" parent="1" source="1yWd1CWP5DWgr2ArtbLw-51" target="1yWd1CWP5DWgr2ArtbLw-60" edge="1">
          <mxGeometry relative="1" as="geometry" />
        </mxCell>
        <mxCell id="1yWd1CWP5DWgr2ArtbLw-65" style="rounded=0;orthogonalLoop=1;jettySize=auto;html=1;exitX=0.75;exitY=1;exitDx=0;exitDy=0;entryX=0.5;entryY=0;entryDx=0;entryDy=0;" parent="1" source="1yWd1CWP5DWgr2ArtbLw-51" target="1yWd1CWP5DWgr2ArtbLw-61" edge="1">
          <mxGeometry relative="1" as="geometry" />
        </mxCell>
        <mxCell id="1yWd1CWP5DWgr2ArtbLw-51" value="4&lt;span style=&quot;white-space: pre;&quot;&gt;&#x9;&lt;/span&gt;5" style="rounded=1;whiteSpace=wrap;html=1;" parent="1" vertex="1">
          <mxGeometry x="569.5" y="750" width="120" height="30" as="geometry" />
        </mxCell>
        <mxCell id="1yWd1CWP5DWgr2ArtbLw-52" value="1" style="rounded=1;whiteSpace=wrap;html=1;" parent="1" vertex="1">
          <mxGeometry x="99.5" y="830" width="120" height="30" as="geometry" />
        </mxCell>
        <mxCell id="1yWd1CWP5DWgr2ArtbLw-53" value="2" style="rounded=1;whiteSpace=wrap;html=1;" parent="1" vertex="1">
          <mxGeometry x="259.5" y="830" width="120" height="30" as="geometry" />
        </mxCell>
        <mxCell id="1yWd1CWP5DWgr2ArtbLw-54" style="rounded=0;orthogonalLoop=1;jettySize=auto;html=1;exitX=0.25;exitY=1;exitDx=0;exitDy=0;entryX=0.5;entryY=0;entryDx=0;entryDy=0;" parent="1" source="1yWd1CWP5DWgr2ArtbLw-56" target="1yWd1CWP5DWgr2ArtbLw-59" edge="1">
          <mxGeometry relative="1" as="geometry" />
        </mxCell>
        <mxCell id="1yWd1CWP5DWgr2ArtbLw-55" style="rounded=0;orthogonalLoop=1;jettySize=auto;html=1;exitX=0.75;exitY=1;exitDx=0;exitDy=0;entryX=0.5;entryY=0;entryDx=0;entryDy=0;" parent="1" source="1yWd1CWP5DWgr2ArtbLw-56" target="1yWd1CWP5DWgr2ArtbLw-51" edge="1">
          <mxGeometry relative="1" as="geometry" />
        </mxCell>
        <mxCell id="1yWd1CWP5DWgr2ArtbLw-56" value="3" style="rounded=1;whiteSpace=wrap;html=1;" parent="1" vertex="1">
          <mxGeometry x="355" y="690" width="120" height="30" as="geometry" />
        </mxCell>
        <mxCell id="1yWd1CWP5DWgr2ArtbLw-57" style="rounded=0;orthogonalLoop=1;jettySize=auto;html=1;exitX=0.25;exitY=1;exitDx=0;exitDy=0;" parent="1" source="1yWd1CWP5DWgr2ArtbLw-59" target="1yWd1CWP5DWgr2ArtbLw-52" edge="1">
          <mxGeometry relative="1" as="geometry" />
        </mxCell>
        <mxCell id="1yWd1CWP5DWgr2ArtbLw-58" style="rounded=0;orthogonalLoop=1;jettySize=auto;html=1;exitX=0.75;exitY=1;exitDx=0;exitDy=0;entryX=0.5;entryY=0;entryDx=0;entryDy=0;" parent="1" source="1yWd1CWP5DWgr2ArtbLw-59" target="1yWd1CWP5DWgr2ArtbLw-53" edge="1">
          <mxGeometry relative="1" as="geometry" />
        </mxCell>
        <mxCell id="1yWd1CWP5DWgr2ArtbLw-59" value="2" style="rounded=1;whiteSpace=wrap;html=1;" parent="1" vertex="1">
          <mxGeometry x="189.5" y="750" width="120" height="30" as="geometry" />
        </mxCell>
        <mxCell id="1yWd1CWP5DWgr2ArtbLw-60" value="4" style="rounded=1;whiteSpace=wrap;html=1;" parent="1" vertex="1">
          <mxGeometry x="569.5" y="830" width="120" height="30" as="geometry" />
        </mxCell>
        <mxCell id="1yWd1CWP5DWgr2ArtbLw-61" value="5&lt;span style=&quot;white-space: pre;&quot;&gt;&#x9;&lt;/span&gt;6" style="rounded=1;whiteSpace=wrap;html=1;" parent="1" vertex="1">
          <mxGeometry x="719.5" y="830" width="120" height="30" as="geometry" />
        </mxCell>
        <mxCell id="1yWd1CWP5DWgr2ArtbLw-66" value="3" style="rounded=1;whiteSpace=wrap;html=1;" parent="1" vertex="1">
          <mxGeometry x="304.5" y="1100" width="120" height="30" as="geometry" />
        </mxCell>
        <mxCell id="1yWd1CWP5DWgr2ArtbLw-67" value="&lt;font style=&quot;font-size: 24px;&quot;&gt;插入7&lt;/font&gt;" style="text;html=1;align=center;verticalAlign=middle;resizable=0;points=[];autosize=1;strokeColor=none;fillColor=none;" parent="1" vertex="1">
          <mxGeometry x="-85" y="1040" width="80" height="40" as="geometry" />
        </mxCell>
        <mxCell id="1yWd1CWP5DWgr2ArtbLw-90" style="rounded=0;orthogonalLoop=1;jettySize=auto;html=1;exitX=0.25;exitY=1;exitDx=0;exitDy=0;entryX=0.5;entryY=0;entryDx=0;entryDy=0;" parent="1" source="1yWd1CWP5DWgr2ArtbLw-71" target="1yWd1CWP5DWgr2ArtbLw-88" edge="1">
          <mxGeometry relative="1" as="geometry" />
        </mxCell>
        <mxCell id="1yWd1CWP5DWgr2ArtbLw-91" style="rounded=0;orthogonalLoop=1;jettySize=auto;html=1;exitX=0.75;exitY=1;exitDx=0;exitDy=0;" parent="1" source="1yWd1CWP5DWgr2ArtbLw-71" target="1yWd1CWP5DWgr2ArtbLw-81" edge="1">
          <mxGeometry relative="1" as="geometry" />
        </mxCell>
        <mxCell id="1yWd1CWP5DWgr2ArtbLw-71" value="6" style="rounded=1;whiteSpace=wrap;html=1;" parent="1" vertex="1">
          <mxGeometry x="664.5" y="1020" width="120" height="30" as="geometry" />
        </mxCell>
        <mxCell id="1yWd1CWP5DWgr2ArtbLw-72" value="1" style="rounded=1;whiteSpace=wrap;html=1;" parent="1" vertex="1">
          <mxGeometry x="20" y="1100" width="120" height="30" as="geometry" />
        </mxCell>
        <mxCell id="1yWd1CWP5DWgr2ArtbLw-73" value="2" style="rounded=1;whiteSpace=wrap;html=1;" parent="1" vertex="1">
          <mxGeometry x="165.5" y="1100" width="120" height="30" as="geometry" />
        </mxCell>
        <mxCell id="1yWd1CWP5DWgr2ArtbLw-74" style="rounded=0;orthogonalLoop=1;jettySize=auto;html=1;exitX=0.25;exitY=1;exitDx=0;exitDy=0;entryX=0.5;entryY=0;entryDx=0;entryDy=0;" parent="1" source="1yWd1CWP5DWgr2ArtbLw-76" target="1yWd1CWP5DWgr2ArtbLw-79" edge="1">
          <mxGeometry relative="1" as="geometry" />
        </mxCell>
        <mxCell id="1yWd1CWP5DWgr2ArtbLw-75" style="rounded=0;orthogonalLoop=1;jettySize=auto;html=1;exitX=0.75;exitY=1;exitDx=0;exitDy=0;entryX=0.5;entryY=0;entryDx=0;entryDy=0;" parent="1" source="1yWd1CWP5DWgr2ArtbLw-76" target="1yWd1CWP5DWgr2ArtbLw-71" edge="1">
          <mxGeometry relative="1" as="geometry" />
        </mxCell>
        <mxCell id="1yWd1CWP5DWgr2ArtbLw-83" style="edgeStyle=orthogonalEdgeStyle;rounded=0;orthogonalLoop=1;jettySize=auto;html=1;exitX=0.5;exitY=1;exitDx=0;exitDy=0;" parent="1" source="1yWd1CWP5DWgr2ArtbLw-76" target="1yWd1CWP5DWgr2ArtbLw-82" edge="1">
          <mxGeometry relative="1" as="geometry" />
        </mxCell>
        <mxCell id="1yWd1CWP5DWgr2ArtbLw-76" value="3&lt;span style=&quot;white-space: pre;&quot;&gt;&#x9;&lt;/span&gt;5" style="rounded=1;whiteSpace=wrap;html=1;" parent="1" vertex="1">
          <mxGeometry x="364" y="950" width="120" height="30" as="geometry" />
        </mxCell>
        <mxCell id="1yWd1CWP5DWgr2ArtbLw-77" style="rounded=0;orthogonalLoop=1;jettySize=auto;html=1;exitX=0.25;exitY=1;exitDx=0;exitDy=0;" parent="1" source="1yWd1CWP5DWgr2ArtbLw-79" target="1yWd1CWP5DWgr2ArtbLw-72" edge="1">
          <mxGeometry relative="1" as="geometry" />
        </mxCell>
        <mxCell id="1yWd1CWP5DWgr2ArtbLw-78" style="rounded=0;orthogonalLoop=1;jettySize=auto;html=1;exitX=0.75;exitY=1;exitDx=0;exitDy=0;entryX=0.5;entryY=0;entryDx=0;entryDy=0;" parent="1" source="1yWd1CWP5DWgr2ArtbLw-79" target="1yWd1CWP5DWgr2ArtbLw-73" edge="1">
          <mxGeometry relative="1" as="geometry" />
        </mxCell>
        <mxCell id="1yWd1CWP5DWgr2ArtbLw-79" value="2" style="rounded=1;whiteSpace=wrap;html=1;" parent="1" vertex="1">
          <mxGeometry x="104.5" y="1020" width="120" height="30" as="geometry" />
        </mxCell>
        <mxCell id="1yWd1CWP5DWgr2ArtbLw-80" value="4" style="rounded=1;whiteSpace=wrap;html=1;" parent="1" vertex="1">
          <mxGeometry x="450" y="1100" width="120" height="30" as="geometry" />
        </mxCell>
        <mxCell id="1yWd1CWP5DWgr2ArtbLw-81" value="6&lt;span style=&quot;white-space: pre;&quot;&gt;&#x9;&lt;/span&gt;7" style="rounded=1;whiteSpace=wrap;html=1;" parent="1" vertex="1">
          <mxGeometry x="754.5" y="1100" width="120" height="30" as="geometry" />
        </mxCell>
        <mxCell id="1yWd1CWP5DWgr2ArtbLw-86" style="rounded=0;orthogonalLoop=1;jettySize=auto;html=1;exitX=0.25;exitY=1;exitDx=0;exitDy=0;entryX=0.5;entryY=0;entryDx=0;entryDy=0;" parent="1" source="1yWd1CWP5DWgr2ArtbLw-82" target="1yWd1CWP5DWgr2ArtbLw-66" edge="1">
          <mxGeometry relative="1" as="geometry" />
        </mxCell>
        <mxCell id="1yWd1CWP5DWgr2ArtbLw-87" style="rounded=0;orthogonalLoop=1;jettySize=auto;html=1;exitX=0.75;exitY=1;exitDx=0;exitDy=0;entryX=0.5;entryY=0;entryDx=0;entryDy=0;" parent="1" source="1yWd1CWP5DWgr2ArtbLw-82" target="1yWd1CWP5DWgr2ArtbLw-80" edge="1">
          <mxGeometry relative="1" as="geometry" />
        </mxCell>
        <mxCell id="1yWd1CWP5DWgr2ArtbLw-82" value="4" style="rounded=1;whiteSpace=wrap;html=1;" parent="1" vertex="1">
          <mxGeometry x="364.5" y="1020" width="120" height="30" as="geometry" />
        </mxCell>
        <mxCell id="1yWd1CWP5DWgr2ArtbLw-84" style="edgeStyle=orthogonalEdgeStyle;rounded=0;orthogonalLoop=1;jettySize=auto;html=1;exitX=0.5;exitY=1;exitDx=0;exitDy=0;" parent="1" source="1yWd1CWP5DWgr2ArtbLw-76" target="1yWd1CWP5DWgr2ArtbLw-76" edge="1">
          <mxGeometry relative="1" as="geometry" />
        </mxCell>
        <mxCell id="1yWd1CWP5DWgr2ArtbLw-88" value="5" style="rounded=1;whiteSpace=wrap;html=1;" parent="1" vertex="1">
          <mxGeometry x="604.5" y="1100" width="120" height="30" as="geometry" />
        </mxCell>
        <mxCell id="d0BBQ0nLQGV6TDkuWPuP-1" value="data&amp;nbsp; &amp;nbsp; data" style="rounded=1;whiteSpace=wrap;html=1;" vertex="1" parent="1">
          <mxGeometry x="444" y="220" width="120" height="30" as="geometry" />
        </mxCell>
        <mxCell id="d0BBQ0nLQGV6TDkuWPuP-2" style="edgeStyle=orthogonalEdgeStyle;rounded=0;orthogonalLoop=1;jettySize=auto;html=1;exitX=1;exitY=0.5;exitDx=0;exitDy=0;entryX=0;entryY=0.5;entryDx=0;entryDy=0;" edge="1" parent="1" source="d0BBQ0nLQGV6TDkuWPuP-3" target="d0BBQ0nLQGV6TDkuWPuP-1">
          <mxGeometry relative="1" as="geometry" />
        </mxCell>
        <mxCell id="d0BBQ0nLQGV6TDkuWPuP-3" value="data" style="rounded=1;whiteSpace=wrap;html=1;" vertex="1" parent="1">
          <mxGeometry x="254" y="220" width="120" height="30" as="geometry" />
        </mxCell>
        <mxCell id="d0BBQ0nLQGV6TDkuWPuP-4" value="data&amp;nbsp; data" style="rounded=1;whiteSpace=wrap;html=1;" vertex="1" parent="1">
          <mxGeometry x="513" y="380" width="120" height="30" as="geometry" />
        </mxCell>
        <mxCell id="d0BBQ0nLQGV6TDkuWPuP-5" style="edgeStyle=orthogonalEdgeStyle;rounded=0;orthogonalLoop=1;jettySize=auto;html=1;exitX=1;exitY=0.5;exitDx=0;exitDy=0;entryX=0;entryY=0.5;entryDx=0;entryDy=0;" edge="1" parent="1" source="d0BBQ0nLQGV6TDkuWPuP-6" target="d0BBQ0nLQGV6TDkuWPuP-8">
          <mxGeometry relative="1" as="geometry" />
        </mxCell>
        <mxCell id="d0BBQ0nLQGV6TDkuWPuP-6" value="data" style="rounded=1;whiteSpace=wrap;html=1;" vertex="1" parent="1">
          <mxGeometry x="194" y="380" width="120" height="30" as="geometry" />
        </mxCell>
        <mxCell id="d0BBQ0nLQGV6TDkuWPuP-7" style="edgeStyle=orthogonalEdgeStyle;rounded=0;orthogonalLoop=1;jettySize=auto;html=1;exitX=1;exitY=0.5;exitDx=0;exitDy=0;entryX=0;entryY=0.5;entryDx=0;entryDy=0;" edge="1" parent="1" source="d0BBQ0nLQGV6TDkuWPuP-8" target="d0BBQ0nLQGV6TDkuWPuP-4">
          <mxGeometry relative="1" as="geometry" />
        </mxCell>
        <mxCell id="d0BBQ0nLQGV6TDkuWPuP-8" value="data" style="rounded=1;whiteSpace=wrap;html=1;" vertex="1" parent="1">
          <mxGeometry x="349" y="380" width="120" height="30" as="geometry" />
        </mxCell>
        <mxCell id="d0BBQ0nLQGV6TDkuWPuP-10" style="edgeStyle=orthogonalEdgeStyle;rounded=0;orthogonalLoop=1;jettySize=auto;html=1;exitX=0.5;exitY=0;exitDx=0;exitDy=0;entryX=0.5;entryY=1;entryDx=0;entryDy=0;startArrow=none;startFill=0;endArrow=none;endFill=0;" edge="1" parent="1" source="d0BBQ0nLQGV6TDkuWPuP-4" target="d0BBQ0nLQGV6TDkuWPuP-4">
          <mxGeometry relative="1" as="geometry" />
        </mxCell>
        <mxCell id="d0BBQ0nLQGV6TDkuWPuP-11" style="edgeStyle=orthogonalEdgeStyle;rounded=0;orthogonalLoop=1;jettySize=auto;html=1;exitX=0.5;exitY=0;exitDx=0;exitDy=0;entryX=0.5;entryY=1;entryDx=0;entryDy=0;startSize=0;endArrow=none;endFill=0;" edge="1" parent="1" source="d0BBQ0nLQGV6TDkuWPuP-1" target="d0BBQ0nLQGV6TDkuWPuP-1">
          <mxGeometry relative="1" as="geometry" />
        </mxCell>
        <mxCell id="d0BBQ0nLQGV6TDkuWPuP-13" style="edgeStyle=orthogonalEdgeStyle;rounded=0;orthogonalLoop=1;jettySize=auto;html=1;exitX=1;exitY=0.5;exitDx=0;exitDy=0;entryX=0;entryY=0.5;entryDx=0;entryDy=0;" edge="1" parent="1" source="d0BBQ0nLQGV6TDkuWPuP-14" target="d0BBQ0nLQGV6TDkuWPuP-19">
          <mxGeometry relative="1" as="geometry" />
        </mxCell>
        <mxCell id="d0BBQ0nLQGV6TDkuWPuP-14" value="data" style="rounded=1;whiteSpace=wrap;html=1;" vertex="1" parent="1">
          <mxGeometry x="440" y="630" width="120" height="30" as="geometry" />
        </mxCell>
        <mxCell id="d0BBQ0nLQGV6TDkuWPuP-15" style="edgeStyle=orthogonalEdgeStyle;rounded=0;orthogonalLoop=1;jettySize=auto;html=1;exitX=1;exitY=0.5;exitDx=0;exitDy=0;entryX=0;entryY=0.5;entryDx=0;entryDy=0;" edge="1" parent="1" source="d0BBQ0nLQGV6TDkuWPuP-16" target="d0BBQ0nLQGV6TDkuWPuP-18">
          <mxGeometry relative="1" as="geometry" />
        </mxCell>
        <mxCell id="d0BBQ0nLQGV6TDkuWPuP-16" value="data" style="rounded=1;whiteSpace=wrap;html=1;" vertex="1" parent="1">
          <mxGeometry x="120" y="630" width="120" height="30" as="geometry" />
        </mxCell>
        <mxCell id="d0BBQ0nLQGV6TDkuWPuP-17" style="edgeStyle=orthogonalEdgeStyle;rounded=0;orthogonalLoop=1;jettySize=auto;html=1;exitX=1;exitY=0.5;exitDx=0;exitDy=0;entryX=0;entryY=0.5;entryDx=0;entryDy=0;" edge="1" parent="1" source="d0BBQ0nLQGV6TDkuWPuP-18" target="d0BBQ0nLQGV6TDkuWPuP-14">
          <mxGeometry relative="1" as="geometry" />
        </mxCell>
        <mxCell id="d0BBQ0nLQGV6TDkuWPuP-18" value="data" style="rounded=1;whiteSpace=wrap;html=1;" vertex="1" parent="1">
          <mxGeometry x="280" y="630" width="120" height="30" as="geometry" />
        </mxCell>
        <mxCell id="d0BBQ0nLQGV6TDkuWPuP-19" value="data&amp;nbsp; &amp;nbsp;data" style="rounded=1;whiteSpace=wrap;html=1;" vertex="1" parent="1">
          <mxGeometry x="590" y="630" width="120" height="30" as="geometry" />
        </mxCell>
        <mxCell id="d0BBQ0nLQGV6TDkuWPuP-22" style="edgeStyle=orthogonalEdgeStyle;rounded=0;orthogonalLoop=1;jettySize=auto;html=1;exitX=0.5;exitY=0;exitDx=0;exitDy=0;entryX=0.5;entryY=1;entryDx=0;entryDy=0;endArrow=none;endFill=0;" edge="1" parent="1" source="d0BBQ0nLQGV6TDkuWPuP-19" target="d0BBQ0nLQGV6TDkuWPuP-19">
          <mxGeometry relative="1" as="geometry" />
        </mxCell>
        <mxCell id="d0BBQ0nLQGV6TDkuWPuP-23" style="edgeStyle=orthogonalEdgeStyle;rounded=0;orthogonalLoop=1;jettySize=auto;html=1;exitX=1;exitY=0.5;exitDx=0;exitDy=0;entryX=0;entryY=0.5;entryDx=0;entryDy=0;" edge="1" parent="1" source="d0BBQ0nLQGV6TDkuWPuP-24" target="d0BBQ0nLQGV6TDkuWPuP-30">
          <mxGeometry relative="1" as="geometry" />
        </mxCell>
        <mxCell id="d0BBQ0nLQGV6TDkuWPuP-24" value="data" style="rounded=1;whiteSpace=wrap;html=1;" vertex="1" parent="1">
          <mxGeometry x="419.5" y="860" width="120" height="30" as="geometry" />
        </mxCell>
        <mxCell id="d0BBQ0nLQGV6TDkuWPuP-25" style="edgeStyle=orthogonalEdgeStyle;rounded=0;orthogonalLoop=1;jettySize=auto;html=1;exitX=1;exitY=0.5;exitDx=0;exitDy=0;entryX=0;entryY=0.5;entryDx=0;entryDy=0;" edge="1" parent="1" source="d0BBQ0nLQGV6TDkuWPuP-26" target="d0BBQ0nLQGV6TDkuWPuP-28">
          <mxGeometry relative="1" as="geometry" />
        </mxCell>
        <mxCell id="d0BBQ0nLQGV6TDkuWPuP-26" value="data" style="rounded=1;whiteSpace=wrap;html=1;" vertex="1" parent="1">
          <mxGeometry x="99.5" y="860" width="120" height="30" as="geometry" />
        </mxCell>
        <mxCell id="d0BBQ0nLQGV6TDkuWPuP-27" style="edgeStyle=orthogonalEdgeStyle;rounded=0;orthogonalLoop=1;jettySize=auto;html=1;exitX=1;exitY=0.5;exitDx=0;exitDy=0;entryX=0;entryY=0.5;entryDx=0;entryDy=0;" edge="1" parent="1" source="d0BBQ0nLQGV6TDkuWPuP-28" target="d0BBQ0nLQGV6TDkuWPuP-24">
          <mxGeometry relative="1" as="geometry" />
        </mxCell>
        <mxCell id="d0BBQ0nLQGV6TDkuWPuP-28" value="data" style="rounded=1;whiteSpace=wrap;html=1;" vertex="1" parent="1">
          <mxGeometry x="259.5" y="860" width="120" height="30" as="geometry" />
        </mxCell>
        <mxCell id="d0BBQ0nLQGV6TDkuWPuP-29" style="edgeStyle=orthogonalEdgeStyle;rounded=0;orthogonalLoop=1;jettySize=auto;html=1;exitX=1;exitY=0.5;exitDx=0;exitDy=0;entryX=0;entryY=0.5;entryDx=0;entryDy=0;" edge="1" parent="1" source="d0BBQ0nLQGV6TDkuWPuP-30" target="d0BBQ0nLQGV6TDkuWPuP-31">
          <mxGeometry relative="1" as="geometry" />
        </mxCell>
        <mxCell id="d0BBQ0nLQGV6TDkuWPuP-30" value="data" style="rounded=1;whiteSpace=wrap;html=1;" vertex="1" parent="1">
          <mxGeometry x="569.5" y="860" width="120" height="30" as="geometry" />
        </mxCell>
        <mxCell id="d0BBQ0nLQGV6TDkuWPuP-31" value="data&amp;nbsp; &amp;nbsp; data" style="rounded=1;whiteSpace=wrap;html=1;" vertex="1" parent="1">
          <mxGeometry x="719.5" y="860" width="120" height="30" as="geometry" />
        </mxCell>
        <mxCell id="d0BBQ0nLQGV6TDkuWPuP-33" style="edgeStyle=orthogonalEdgeStyle;rounded=0;orthogonalLoop=1;jettySize=auto;html=1;exitX=0.5;exitY=0;exitDx=0;exitDy=0;entryX=0.5;entryY=1;entryDx=0;entryDy=0;endArrow=none;endFill=0;" edge="1" parent="1" source="d0BBQ0nLQGV6TDkuWPuP-31" target="d0BBQ0nLQGV6TDkuWPuP-31">
          <mxGeometry relative="1" as="geometry" />
        </mxCell>
        <mxCell id="d0BBQ0nLQGV6TDkuWPuP-34" style="edgeStyle=orthogonalEdgeStyle;rounded=0;orthogonalLoop=1;jettySize=auto;html=1;exitX=1;exitY=0.5;exitDx=0;exitDy=0;entryX=0;entryY=0.5;entryDx=0;entryDy=0;" edge="1" parent="1" source="d0BBQ0nLQGV6TDkuWPuP-35" target="d0BBQ0nLQGV6TDkuWPuP-41">
          <mxGeometry relative="1" as="geometry" />
        </mxCell>
        <mxCell id="d0BBQ0nLQGV6TDkuWPuP-35" value="data" style="rounded=1;whiteSpace=wrap;html=1;" vertex="1" parent="1">
          <mxGeometry x="304.5" y="1130" width="120" height="30" as="geometry" />
        </mxCell>
        <mxCell id="d0BBQ0nLQGV6TDkuWPuP-36" style="edgeStyle=orthogonalEdgeStyle;rounded=0;orthogonalLoop=1;jettySize=auto;html=1;exitX=1;exitY=0.5;exitDx=0;exitDy=0;entryX=0;entryY=0.5;entryDx=0;entryDy=0;" edge="1" parent="1" source="d0BBQ0nLQGV6TDkuWPuP-37" target="d0BBQ0nLQGV6TDkuWPuP-39">
          <mxGeometry relative="1" as="geometry" />
        </mxCell>
        <mxCell id="d0BBQ0nLQGV6TDkuWPuP-37" value="data" style="rounded=1;whiteSpace=wrap;html=1;" vertex="1" parent="1">
          <mxGeometry x="20" y="1130" width="120" height="30" as="geometry" />
        </mxCell>
        <mxCell id="d0BBQ0nLQGV6TDkuWPuP-38" style="edgeStyle=orthogonalEdgeStyle;rounded=0;orthogonalLoop=1;jettySize=auto;html=1;exitX=1;exitY=0.5;exitDx=0;exitDy=0;entryX=0;entryY=0.5;entryDx=0;entryDy=0;" edge="1" parent="1" source="d0BBQ0nLQGV6TDkuWPuP-39" target="d0BBQ0nLQGV6TDkuWPuP-35">
          <mxGeometry relative="1" as="geometry" />
        </mxCell>
        <mxCell id="d0BBQ0nLQGV6TDkuWPuP-39" value="data" style="rounded=1;whiteSpace=wrap;html=1;" vertex="1" parent="1">
          <mxGeometry x="165.5" y="1130" width="120" height="30" as="geometry" />
        </mxCell>
        <mxCell id="d0BBQ0nLQGV6TDkuWPuP-40" style="edgeStyle=orthogonalEdgeStyle;rounded=0;orthogonalLoop=1;jettySize=auto;html=1;exitX=1;exitY=0.5;exitDx=0;exitDy=0;entryX=0;entryY=0.5;entryDx=0;entryDy=0;" edge="1" parent="1" source="d0BBQ0nLQGV6TDkuWPuP-41" target="d0BBQ0nLQGV6TDkuWPuP-44">
          <mxGeometry relative="1" as="geometry" />
        </mxCell>
        <mxCell id="d0BBQ0nLQGV6TDkuWPuP-41" value="data" style="rounded=1;whiteSpace=wrap;html=1;" vertex="1" parent="1">
          <mxGeometry x="450" y="1130" width="120" height="30" as="geometry" />
        </mxCell>
        <mxCell id="d0BBQ0nLQGV6TDkuWPuP-42" value="data&amp;nbsp; &amp;nbsp; data" style="rounded=1;whiteSpace=wrap;html=1;" vertex="1" parent="1">
          <mxGeometry x="754.5" y="1130" width="120" height="30" as="geometry" />
        </mxCell>
        <mxCell id="d0BBQ0nLQGV6TDkuWPuP-43" style="edgeStyle=orthogonalEdgeStyle;rounded=0;orthogonalLoop=1;jettySize=auto;html=1;exitX=1;exitY=0.5;exitDx=0;exitDy=0;entryX=0;entryY=0.5;entryDx=0;entryDy=0;" edge="1" parent="1" source="d0BBQ0nLQGV6TDkuWPuP-44" target="d0BBQ0nLQGV6TDkuWPuP-42">
          <mxGeometry relative="1" as="geometry" />
        </mxCell>
        <mxCell id="d0BBQ0nLQGV6TDkuWPuP-44" value="data" style="rounded=1;whiteSpace=wrap;html=1;" vertex="1" parent="1">
          <mxGeometry x="604.5" y="1130" width="120" height="30" as="geometry" />
        </mxCell>
        <mxCell id="d0BBQ0nLQGV6TDkuWPuP-46" style="edgeStyle=orthogonalEdgeStyle;rounded=0;orthogonalLoop=1;jettySize=auto;html=1;exitX=0.5;exitY=0;exitDx=0;exitDy=0;entryX=0.5;entryY=1;entryDx=0;entryDy=0;endArrow=none;endFill=0;" edge="1" parent="1" source="d0BBQ0nLQGV6TDkuWPuP-42" target="d0BBQ0nLQGV6TDkuWPuP-42">
          <mxGeometry relative="1" as="geometry" />
        </mxCell>
        <mxCell id="d0BBQ0nLQGV6TDkuWPuP-47" value="data&amp;nbsp; &amp;nbsp; data" style="rounded=1;whiteSpace=wrap;html=1;" vertex="1" parent="1">
          <mxGeometry x="344" y="78" width="120" height="30" as="geometry" />
        </mxCell>
      </root>
    </mxGraphModel>
  </diagram>
</mxfile>
